<svg xmlns="http://www.w3.org/2000/svg" enable-background="new 0 0 47.5 47.5" viewBox="0 0 47.5 47.5" id="plane"><defs><clipPath id="a"><path d="M0 38h38V0H0v38Z"></path></clipPath></defs><g clip-path="url(#a)" transform="matrix(1.25 0 0 -1.25 0 47.5)"><path fill="#5C6B75" d="M0 0a.997.997 0 0 0-1.414 0l-1.414 1.414a.997.997 0 0 0 0 1.414L0 5.656a.999.999 0 0 0 1.414 0l1.414-1.414a.997.997 0 0 0 0-1.414L0 0Z" transform="translate(31 13.172)"></path><path fill="#5C6B75" d="M0 0a.997.997 0 0 0-1.414 0l-1.414 1.414a.997.997 0 0 0 0 1.414L0 5.656a.999.999 0 0 0 1.414 0l1.414-1.414a.997.997 0 0 0 0-1.414L0 0Z" transform="translate(16 28.172)"></path><path fill="#6F7F8C" d="M0 0c2 0 11-1 11-1s1-9 1-11-2-2-3-1-4 6-4 6-5 3-6 4-1 3 1 3" transform="translate(3 15)"></path><path fill="#6F7F8C" d="M0 0c3 .039 25-.961 25-.961s.924-22 .962-25c.038-3-2.762-4.002-3.862-.001C21-21.961 17-8.961 17-8.961S3.045-4.545-.005-3.859C-4-2.961-3-.039 0 0" transform="translate(5 30.961)"></path><path fill="#ccd6dd" d="M0 0c2 2 7 3 8 2s0-6-2-8-19-18-19-18-6.5-4.5-8-3 3 8 3 8S-2-2 0 0" transform="translate(28 34)"></path><path fill="#5C6B75" d="M0 0s.5-.5-4-5-5-4-5-4-.5.5 4 5 5 4 5 4" transform="translate(15 15)"></path><path fill="#5C6B75" d="M0 0a3 3 0 0 0 3-3h.805c.114.315.195.645.195 1a3 3 0 0 1-3 3C.645 1 .314.919 0 .805V0Z" transform="translate(30 33)"></path></g></svg>